<svg width="32" height="32" viewBox="0 0 32 32" fill="none" xmlns="http://www.w3.org/2000/svg">
<g clip-path="url(#clip0_164_114)">
<rect width="32" height="32" fill="white"/>
<path d="M23.9279 2.31954C20.0125 0.199013 16.1177 0.0137234 15.9529 0.00686086L-1 0V32H0.964557H3.14206H12.7244C12.7244 32 16.159 32 16.4749 32C18.4532 32 23.8317 31.6363 27.7608 27.9854C30.6252 25.3228 32.0746 21.5552 32.0746 16.7995C32.0815 8.4821 27.6441 4.33026 23.9279 2.31954ZM3.14206 13.1418H7.79929V27.8619H3.14206V13.1418ZM11.9413 13.1418H16.7222C16.9077 13.1898 17.3198 13.3339 17.732 13.629C18.5013 14.1849 18.8791 15.0495 18.8791 16.2573C18.8791 18.769 17.2649 18.8994 16.942 18.8994H11.9413V13.1418V13.1418ZM24.9583 24.9316C21.5031 28.1638 16.0628 27.8482 16.0147 27.8482L11.9413 27.8413V23.0375H16.942C19.3874 23.0375 23.0212 21.2327 23.0212 16.2573C23.0212 11.2408 19.25 9.33305 17.258 9.02423L17.1 8.99678H3.14206V4.13811H15.8086C16.6947 4.19301 27.9326 5.08513 27.9326 16.7926C27.9394 20.3474 26.9365 23.0856 24.9583 24.9316Z" fill="#642AD5"/>
</g>
<defs>
<clipPath id="clip0_164_114">
<rect width="32" height="32" fill="white"/>
</clipPath>
</defs>
</svg>
