<svg width="140" height="140" viewBox="0 0 140 140" fill="none" xmlns="http://www.w3.org/2000/svg">
<path fill-rule="evenodd" clip-rule="evenodd" d="M12.7273 6.36363C12.7273 9.87817 9.87817 12.7273 6.36363 12.7273C2.8491 12.7273 0 9.87817 0 6.36363C0 2.8491 2.8491 0 6.36363 0C9.87817 0 12.7273 2.8491 12.7273 6.36363ZM12.7273 38.182C12.7273 41.6965 9.87817 44.5456 6.36363 44.5456C2.8491 44.5456 0 41.6965 0 38.182C0 34.6674 2.8491 31.8183 6.36363 31.8183C9.87817 31.8183 12.7273 34.6674 12.7273 38.182ZM6.36363 76.3636C9.87817 76.3636 12.7273 73.5145 12.7273 69.9999C12.7273 66.4854 9.87817 63.6363 6.36363 63.6363C2.8491 63.6363 0 66.4854 0 69.9999C0 73.5145 2.8491 76.3636 6.36363 76.3636ZM12.7273 101.818C12.7273 105.333 9.87817 108.182 6.36363 108.182C2.8491 108.182 0 105.333 0 101.818C0 98.3037 2.8491 95.4546 6.36363 95.4546C9.87817 95.4546 12.7273 98.3037 12.7273 101.818ZM6.36363 140C9.87817 140 12.7273 137.151 12.7273 133.636C12.7273 130.122 9.87817 127.273 6.36363 127.273C2.8491 127.273 0 130.122 0 133.636C0 137.151 2.8491 140 6.36363 140ZM44.5454 6.36363C44.5454 9.87817 41.6963 12.7273 38.1818 12.7273C34.6673 12.7273 31.8182 9.87817 31.8182 6.36363C31.8182 2.8491 34.6673 0 38.1818 0C41.6963 0 44.5454 2.8491 44.5454 6.36363ZM38.1818 44.5456C41.6963 44.5456 44.5454 41.6965 44.5454 38.182C44.5454 34.6674 41.6963 31.8183 38.1818 31.8183C34.6673 31.8183 31.8182 34.6674 31.8182 38.182C31.8182 41.6965 34.6673 44.5456 38.1818 44.5456ZM44.5454 69.9999C44.5454 73.5145 41.6963 76.3636 38.1818 76.3636C34.6673 76.3636 31.8182 73.5145 31.8182 69.9999C31.8182 66.4854 34.6673 63.6363 38.1818 63.6363C41.6963 63.6363 44.5454 66.4854 44.5454 69.9999ZM38.1818 108.182C41.6963 108.182 44.5454 105.333 44.5454 101.818C44.5454 98.3037 41.6963 95.4546 38.1818 95.4546C34.6673 95.4546 31.8182 98.3037 31.8182 101.818C31.8182 105.333 34.6673 108.182 38.1818 108.182ZM44.5454 133.636C44.5454 137.151 41.6963 140 38.1818 140C34.6673 140 31.8182 137.151 31.8182 133.636C31.8182 130.122 34.6673 127.273 38.1818 127.273C41.6963 127.273 44.5454 130.122 44.5454 133.636ZM69.9999 12.7273C73.5145 12.7273 76.3636 9.87817 76.3636 6.36363C76.3636 2.8491 73.5145 0 69.9999 0C66.4854 0 63.6363 2.8491 63.6363 6.36363C63.6363 9.87817 66.4854 12.7273 69.9999 12.7273ZM76.3636 38.182C76.3636 41.6965 73.5145 44.5456 69.9999 44.5456C66.4854 44.5456 63.6363 41.6965 63.6363 38.182C63.6363 34.6674 66.4854 31.8183 69.9999 31.8183C73.5145 31.8183 76.3636 34.6674 76.3636 38.182ZM69.9999 76.3636C73.5145 76.3636 76.3636 73.5145 76.3636 69.9999C76.3636 66.4854 73.5145 63.6363 69.9999 63.6363C66.4854 63.6363 63.6363 66.4854 63.6363 69.9999C63.6363 73.5145 66.4854 76.3636 69.9999 76.3636ZM76.3636 101.818C76.3636 105.333 73.5145 108.182 69.9999 108.182C66.4854 108.182 63.6363 105.333 63.6363 101.818C63.6363 98.3037 66.4854 95.4546 69.9999 95.4546C73.5145 95.4546 76.3636 98.3037 76.3636 101.818ZM69.9999 140C73.5145 140 76.3636 137.151 76.3636 133.636C76.3636 130.122 73.5145 127.273 69.9999 127.273C66.4854 127.273 63.6363 130.122 63.6363 133.636C63.6363 137.151 66.4854 140 69.9999 140ZM108.182 6.36363C108.182 9.87817 105.333 12.7273 101.818 12.7273C98.3036 12.7273 95.4545 9.87817 95.4545 6.36363C95.4545 2.8491 98.3036 0 101.818 0C105.333 0 108.182 2.8491 108.182 6.36363ZM101.818 44.5456C105.333 44.5456 108.182 41.6965 108.182 38.182C108.182 34.6674 105.333 31.8183 101.818 31.8183C98.3036 31.8183 95.4545 34.6674 95.4545 38.182C95.4545 41.6965 98.3036 44.5456 101.818 44.5456ZM108.182 69.9999C108.182 73.5145 105.333 76.3636 101.818 76.3636C98.3036 76.3636 95.4545 73.5145 95.4545 69.9999C95.4545 66.4854 98.3036 63.6363 101.818 63.6363C105.333 63.6363 108.182 66.4854 108.182 69.9999ZM101.818 108.182C105.333 108.182 108.182 105.333 108.182 101.818C108.182 98.3037 105.333 95.4546 101.818 95.4546C98.3036 95.4546 95.4545 98.3037 95.4545 101.818C95.4545 105.333 98.3036 108.182 101.818 108.182ZM108.182 133.636C108.182 137.151 105.333 140 101.818 140C98.3036 140 95.4545 137.151 95.4545 133.636C95.4545 130.122 98.3036 127.273 101.818 127.273C105.333 127.273 108.182 130.122 108.182 133.636ZM133.636 12.7273C137.151 12.7273 140 9.87817 140 6.36363C140 2.8491 137.151 0 133.636 0C130.122 0 127.273 2.8491 127.273 6.36363C127.273 9.87817 130.122 12.7273 133.636 12.7273ZM140 38.182C140 41.6965 137.151 44.5456 133.636 44.5456C130.122 44.5456 127.273 41.6965 127.273 38.182C127.273 34.6674 130.122 31.8183 133.636 31.8183C137.151 31.8183 140 34.6674 140 38.182ZM133.636 76.3636C137.151 76.3636 140 73.5145 140 69.9999C140 66.4854 137.151 63.6363 133.636 63.6363C130.122 63.6363 127.273 66.4854 127.273 69.9999C127.273 73.5145 130.122 76.3636 133.636 76.3636ZM140 101.818C140 105.333 137.151 108.182 133.636 108.182C130.122 108.182 127.273 105.333 127.273 101.818C127.273 98.3037 130.122 95.4546 133.636 95.4546C137.151 95.4546 140 98.3037 140 101.818ZM133.636 140C137.151 140 140 137.151 140 133.636C140 130.122 137.151 127.273 133.636 127.273C130.122 127.273 127.273 130.122 127.273 133.636C127.273 137.151 130.122 140 133.636 140Z" fill="url(#paint0_linear_160_80)"/>
<defs>
<linearGradient id="paint0_linear_160_80" x1="8.5" y1="-18" x2="154" y2="150" gradientUnits="userSpaceOnUse">
<stop stop-color="#D14EFF"/>
<stop offset="1" stop-color="#6B19D2"/>
</linearGradient>
</defs>
</svg>
