<svg width="104" height="104" viewBox="0 0 104 104" fill="none" xmlns="http://www.w3.org/2000/svg">
<path fill-rule="evenodd" clip-rule="evenodd" d="M9.45453 4.72728C9.45453 7.33807 7.33807 9.45454 4.72729 9.45454C2.11646 9.45454 0 7.33807 0 4.72728C0 2.11647 2.11646 0 4.72729 0C7.33807 0 9.45453 2.11647 9.45453 4.72728ZM9.45453 28.3636C9.45453 30.9744 7.33807 33.0909 4.72729 33.0909C2.11646 33.0909 0 30.9744 0 28.3636C0 25.7528 2.11646 23.6364 4.72729 23.6364C7.33807 23.6364 9.45453 25.7528 9.45453 28.3636ZM4.72729 56.7273C7.33807 56.7273 9.45453 54.6108 9.45453 52C9.45453 49.3892 7.33807 47.2727 4.72729 47.2727C2.11646 47.2727 0 49.3892 0 52C0 54.6108 2.11646 56.7273 4.72729 56.7273ZM9.45453 75.6364C9.45453 78.2472 7.33807 80.3636 4.72729 80.3636C2.11646 80.3636 0 78.2472 0 75.6364C0 73.0256 2.11646 70.9091 4.72729 70.9091C7.33807 70.9091 9.45453 73.0256 9.45453 75.6364ZM4.72729 104C7.33807 104 9.45453 101.884 9.45453 99.2727C9.45453 96.662 7.33807 94.5455 4.72729 94.5455C2.11646 94.5455 0 96.662 0 99.2727C0 101.884 2.11646 104 4.72729 104ZM33.0909 4.72728C33.0909 7.33807 30.9744 9.45454 28.3636 9.45454C25.7528 9.45454 23.6364 7.33807 23.6364 4.72728C23.6364 2.11647 25.7528 0 28.3636 0C30.9744 0 33.0909 2.11647 33.0909 4.72728ZM28.3636 33.0909C30.9744 33.0909 33.0909 30.9744 33.0909 28.3636C33.0909 25.7528 30.9744 23.6364 28.3636 23.6364C25.7528 23.6364 23.6364 25.7528 23.6364 28.3636C23.6364 30.9744 25.7528 33.0909 28.3636 33.0909ZM33.0909 52C33.0909 54.6108 30.9744 56.7273 28.3636 56.7273C25.7528 56.7273 23.6364 54.6108 23.6364 52C23.6364 49.3892 25.7528 47.2727 28.3636 47.2727C30.9744 47.2727 33.0909 49.3892 33.0909 52ZM28.3636 80.3636C30.9744 80.3636 33.0909 78.2472 33.0909 75.6364C33.0909 73.0256 30.9744 70.9091 28.3636 70.9091C25.7528 70.9091 23.6364 73.0256 23.6364 75.6364C23.6364 78.2472 25.7528 80.3636 28.3636 80.3636ZM33.0909 99.2727C33.0909 101.884 30.9744 104 28.3636 104C25.7528 104 23.6364 101.884 23.6364 99.2727C23.6364 96.662 25.7528 94.5455 28.3636 94.5455C30.9744 94.5455 33.0909 96.662 33.0909 99.2727ZM52 9.45454C54.6108 9.45454 56.7272 7.33807 56.7272 4.72728C56.7272 2.11647 54.6108 0 52 0C49.3892 0 47.2727 2.11647 47.2727 4.72728C47.2727 7.33807 49.3892 9.45454 52 9.45454ZM56.7272 28.3636C56.7272 30.9744 54.6108 33.0909 52 33.0909C49.3892 33.0909 47.2727 30.9744 47.2727 28.3636C47.2727 25.7528 49.3892 23.6364 52 23.6364C54.6108 23.6364 56.7272 25.7528 56.7272 28.3636ZM52 56.7273C54.6108 56.7273 56.7272 54.6108 56.7272 52C56.7272 49.3892 54.6108 47.2727 52 47.2727C49.3892 47.2727 47.2727 49.3892 47.2727 52C47.2727 54.6108 49.3892 56.7273 52 56.7273ZM56.7272 75.6364C56.7272 78.2472 54.6108 80.3636 52 80.3636C49.3892 80.3636 47.2727 78.2472 47.2727 75.6364C47.2727 73.0256 49.3892 70.9091 52 70.9091C54.6108 70.9091 56.7272 73.0256 56.7272 75.6364ZM52 104C54.6108 104 56.7272 101.884 56.7272 99.2727C56.7272 96.662 54.6108 94.5455 52 94.5455C49.3892 94.5455 47.2727 96.662 47.2727 99.2727C47.2727 101.884 49.3892 104 52 104ZM80.3636 4.72728C80.3636 7.33807 78.2471 9.45454 75.6364 9.45454C73.0255 9.45454 70.9091 7.33807 70.9091 4.72728C70.9091 2.11647 73.0255 0 75.6364 0C78.2471 0 80.3636 2.11647 80.3636 4.72728ZM75.6364 33.0909C78.2471 33.0909 80.3636 30.9744 80.3636 28.3636C80.3636 25.7528 78.2471 23.6364 75.6364 23.6364C73.0255 23.6364 70.9091 25.7528 70.9091 28.3636C70.9091 30.9744 73.0255 33.0909 75.6364 33.0909ZM80.3636 52C80.3636 54.6108 78.2471 56.7273 75.6364 56.7273C73.0255 56.7273 70.9091 54.6108 70.9091 52C70.9091 49.3892 73.0255 47.2727 75.6364 47.2727C78.2471 47.2727 80.3636 49.3892 80.3636 52ZM75.6364 80.3636C78.2471 80.3636 80.3636 78.2472 80.3636 75.6364C80.3636 73.0256 78.2471 70.9091 75.6364 70.9091C73.0255 70.9091 70.9091 73.0256 70.9091 75.6364C70.9091 78.2472 73.0255 80.3636 75.6364 80.3636ZM80.3636 99.2727C80.3636 101.884 78.2471 104 75.6364 104C73.0255 104 70.9091 101.884 70.9091 99.2727C70.9091 96.662 73.0255 94.5455 75.6364 94.5455C78.2471 94.5455 80.3636 96.662 80.3636 99.2727ZM99.2728 9.45454C101.884 9.45454 104 7.33807 104 4.72728C104 2.11647 101.884 0 99.2728 0C96.6619 0 94.5455 2.11647 94.5455 4.72728C94.5455 7.33807 96.6619 9.45454 99.2728 9.45454ZM104 28.3636C104 30.9744 101.884 33.0909 99.2728 33.0909C96.6619 33.0909 94.5455 30.9744 94.5455 28.3636C94.5455 25.7528 96.6619 23.6364 99.2728 23.6364C101.884 23.6364 104 25.7528 104 28.3636ZM99.2728 56.7273C101.884 56.7273 104 54.6108 104 52C104 49.3892 101.884 47.2727 99.2728 47.2727C96.6619 47.2727 94.5455 49.3892 94.5455 52C94.5455 54.6108 96.6619 56.7273 99.2728 56.7273ZM104 75.6364C104 78.2472 101.884 80.3636 99.2728 80.3636C96.6619 80.3636 94.5455 78.2472 94.5455 75.6364C94.5455 73.0256 96.6619 70.9091 99.2728 70.9091C101.884 70.9091 104 73.0256 104 75.6364ZM99.2728 104C101.884 104 104 101.884 104 99.2727C104 96.662 101.884 94.5455 99.2728 94.5455C96.6619 94.5455 94.5455 96.662 94.5455 99.2727C94.5455 101.884 96.6619 104 99.2728 104Z" fill="url(#paint0_linear_140_35)"/>
<defs>
<linearGradient id="paint0_linear_140_35" x1="-7" y1="-22.5" x2="104" y2="108.5" gradientUnits="userSpaceOnUse">
<stop stop-color="#D14EFF"/>
<stop offset="0.238679" stop-color="#D14EFF"/>
<stop offset="0.417342" stop-color="#3099E6"/>
<stop offset="0.588608" stop-color="#6B19D2"/>
<stop offset="0.75224" stop-color="#470C92" stop-opacity="0.219462"/>
<stop offset="1" stop-color="#3D0880" stop-opacity="0"/>
</linearGradient>
</defs>
</svg>
