<svg width="50" height="48" viewBox="0 0 50 48" fill="none" xmlns="http://www.w3.org/2000/svg">
<path d="M37.3918 3.4793C31.5188 0.298519 25.6766 0.0205851 25.4293 0.0102913L0 0V48H2.94684H6.21308H20.5866C20.5866 48 25.7384 48 26.2124 48C29.1798 48 37.2476 47.4544 43.1413 41.9781C47.4379 37.9841 49.6119 32.3328 49.6119 25.1992C49.6222 12.7231 42.9661 6.49539 37.3918 3.4793ZM6.21308 19.7126H13.1989V41.7928H6.21308V19.7126ZM19.412 19.7126H26.5833C26.8615 19.7847 27.4798 20.0009 28.098 20.4435C29.252 21.2773 29.8187 22.5743 29.8187 24.386C29.8187 28.1535 27.3973 28.3491 26.9131 28.3491H19.412V19.7126ZM38.9374 37.3974C33.7547 42.2458 25.5942 41.7723 25.5221 41.7723L19.412 41.7619V34.5563H26.9131C30.5811 34.5563 36.0318 31.849 36.0318 24.386C36.0318 16.8612 30.3751 13.9996 27.387 13.5363L27.15 13.4952H6.21308V6.20716H25.213C26.5421 6.28951 43.3988 7.6277 43.3988 25.1889C43.4091 30.5211 41.9048 34.6284 38.9374 37.3974Z" fill="#1C1C1C"/>
</svg>
